<svg width="15" height="14" viewBox="0 0 15 14" fill="none" xmlns="http://www.w3.org/2000/svg">
<path d="M8 8.69999H9V6.49999H11.2V5.49999H9V3.29999H8V5.49999H5.8V6.49999H8V8.69999ZM3.83333 11.6667C3.56667 11.6667 3.33333 11.5667 3.13333 11.3667C2.93333 11.1667 2.83333 10.9333 2.83333 10.6667V1.33333C2.83333 1.06666 2.93333 0.833328 3.13333 0.633328C3.33333 0.433328 3.56667 0.333328 3.83333 0.333328H13.1667C13.4333 0.333328 13.6667 0.433328 13.8667 0.633328C14.0667 0.833328 14.1667 1.06666 14.1667 1.33333V10.6667C14.1667 10.9333 14.0667 11.1667 13.8667 11.3667C13.6667 11.5667 13.4333 11.6667 13.1667 11.6667H3.83333ZM3.83333 10.6667H13.1667V1.33333H3.83333V10.6667ZM1.83333 13.6667C1.56667 13.6667 1.33333 13.5667 1.13333 13.3667C0.933334 13.1667 0.833334 12.9333 0.833334 12.6667V2.33333H1.83333V12.6667H12.1667V13.6667H1.83333Z" fill="white"/>
</svg>
