<svg width="20" height="35" viewBox="0 0 20 35" fill="none" xmlns="http://www.w3.org/2000/svg">
<path d="M9.78784 17.9947C9.78784 18.5873 10.271 19.0677 10.8671 19.0677C11.4631 19.0677 11.9463 18.5873 11.9463 17.9947C11.9463 17.4021 11.4631 16.9217 10.8671 16.9217C10.271 16.9217 9.78784 17.4021 9.78784 17.9947Z" fill="#D9D9D9"/>
<path fill-rule="evenodd" clip-rule="evenodd" d="M12.471 12.8584C12.1396 11.1227 9.59456 11.1227 9.26313 12.8584C9.07949 13.8202 8.06067 14.3949 7.11636 14.0694C5.41213 13.482 4.13962 15.6354 5.51241 16.7837C6.27308 17.42 6.27308 18.5694 5.51241 19.2057C4.13962 20.354 5.41213 22.5074 7.11636 21.92C8.06067 21.5945 9.07949 22.1692 9.26313 23.131C9.59456 24.8667 12.1396 24.8667 12.471 23.131C12.6547 22.1692 13.6735 21.5945 14.6178 21.92C16.322 22.5074 17.5945 20.354 16.2218 19.2057C15.4611 18.5694 15.4611 17.42 16.2218 16.7837C17.5945 15.6354 16.322 13.482 14.6178 14.0694C13.6735 14.3949 12.6547 13.8202 12.471 12.8584ZM8.70861 17.9947C8.70861 19.1799 9.67499 20.1407 10.8671 20.1407C12.0592 20.1407 13.0256 19.1799 13.0256 17.9947C13.0256 16.8095 12.0592 15.8487 10.8671 15.8487C9.67499 15.8487 8.70861 16.8095 8.70861 17.9947Z" fill="#D9D9D9"/>
<path fill-rule="evenodd" clip-rule="evenodd" d="M1.38529 21.5601C1.0487 21.5661 0.734154 21.6813 0.498101 21.8776C0.246338 22.0869 0.0679634 22.3762 0.0147136 22.707C-0.0385564 23.0375 0.0521297 23.4115 0.298029 23.7031C0.298029 23.7032 0.298346 23.7032 0.298346 23.7036C1.02176 24.5627 2.39063 26.2831 3.76104 27.841C4.44643 28.62 5.13226 29.3595 5.75028 29.9404C6.36829 30.5213 6.87197 30.9538 7.41924 31.109C10.0903 31.8679 12.1127 31.4686 14.9367 32.8411L14.771 33.4296C14.7549 33.4868 14.7503 33.5472 14.7572 33.6062C14.7642 33.6652 14.7829 33.7229 14.8119 33.7747C14.841 33.8266 14.8803 33.8727 14.927 33.9095C14.9737 33.9463 15.0277 33.9739 15.0848 33.99L17.526 34.681C17.5832 34.6971 17.6436 34.702 17.7028 34.6951C17.7619 34.6882 17.8196 34.6694 17.8715 34.6404C17.9235 34.6114 17.9696 34.572 18.0064 34.5253C18.0433 34.4785 18.0709 34.4246 18.0871 34.3674L19.9829 27.6612C19.9991 27.604 20.0039 27.5436 19.9969 27.4844C19.9899 27.4253 19.9712 27.3676 19.9422 27.3158C19.9132 27.2638 19.8738 27.2176 19.8271 27.1808C19.7803 27.1439 19.7264 27.1165 19.6692 27.1001L17.2256 26.4092C17.1683 26.3931 17.1078 26.3883 17.0486 26.3953C16.9895 26.4023 16.9318 26.421 16.8798 26.4501C16.8278 26.4791 16.7816 26.5186 16.7449 26.5654C16.7079 26.6122 16.6805 26.6662 16.6643 26.7235L16.5105 27.2693C15.7464 26.742 14.7686 26.2106 13.9953 25.9922C13.0627 25.7287 12.339 25.7157 11.7249 25.7192C11.1128 25.7227 10.6231 25.7379 10.0266 25.5697L7.62359 24.811H7.62344C7.08647 24.6416 6.51586 24.8278 6.18926 25.2359L2.53346 22.0019C2.5333 22.0019 2.53314 22.0018 2.53314 22.0018C2.17658 21.6871 1.76658 21.5536 1.38514 21.5604L1.38529 21.5601Z" fill="#D9D9D9"/>
<path fill-rule="evenodd" clip-rule="evenodd" d="M18.6147 13.1382C18.9513 13.1322 19.2658 13.0169 19.5019 12.8206C19.7537 12.6114 19.932 12.322 19.9853 11.9913C20.0386 11.6607 19.9479 11.2867 19.702 10.9952C19.702 10.995 19.7017 10.995 19.7017 10.9947C18.9782 10.1355 17.6094 8.41519 16.239 6.85727C15.5536 6.07821 14.8677 5.33876 14.2497 4.75784C13.6317 4.17696 13.128 3.74443 12.5808 3.58923C9.90966 2.8303 7.88731 3.22966 5.06329 1.85715L5.22896 1.26864C5.24513 1.21141 5.24973 1.15101 5.24275 1.09202C5.23578 1.03305 5.21707 0.975339 5.18805 0.923497C5.15904 0.871656 5.11972 0.825517 5.07295 0.788737C5.02634 0.751955 4.97228 0.72437 4.91521 0.708197L2.474 0.0172901C2.41676 0.00111866 2.35636 -0.00379562 2.29722 0.00317955C2.23809 0.00999737 2.18038 0.028863 2.12853 0.0578775C2.07654 0.0868912 2.0304 0.12621 1.99362 0.172977C1.95668 0.219746 1.92909 0.273653 1.91292 0.330884L0.0170727 7.03703C0.000900269 7.09426 -0.00385475 7.15466 0.00312042 7.2138C0.0100975 7.27294 0.0288048 7.33065 0.0578194 7.38249C0.086834 7.43449 0.12615 7.48063 0.172918 7.51741C0.219687 7.55435 0.273596 7.58177 0.330826 7.59811L2.77443 8.28901C2.83167 8.30518 2.89223 8.30994 2.95136 8.30297C3.0105 8.29599 3.06821 8.27728 3.12021 8.24811C3.17221 8.2191 3.21835 8.17962 3.25513 8.13285C3.29207 8.08608 3.3195 8.03202 3.33567 7.97479L3.48946 7.42893C4.25362 7.95624 5.23136 8.48768 6.00474 8.706C6.9373 8.96949 7.66104 8.98249 8.27508 8.97901C8.88721 8.97552 9.37693 8.9603 9.97339 9.12851L12.3764 9.88728H12.3766C12.9135 10.0566 13.4841 9.87047 13.8107 9.46238L17.4665 12.6963C17.4667 12.6963 17.4669 12.6965 17.4669 12.6965C17.8234 13.0112 18.2334 13.1447 18.6149 13.1379L18.6147 13.1382Z" fill="#D9D9D9"/>
</svg>
