<svg width="39" height="24" viewBox="0 0 39 24" fill="none" xmlns="http://www.w3.org/2000/svg">
<path d="M19.2 11.9999C15.8863 11.9999 13.2 9.31359 13.2 5.99988C13.2 2.68617 15.8863 -0.00012207 19.2 -0.00012207C22.5137 -0.00012207 25.2 2.68617 25.2 5.99988C25.2 9.31359 22.5137 11.9999 19.2 11.9999Z" fill="#D9D9D9"/>
<path d="M19.2 23.9999C11.2944 23.9999 9.6 23.1527 9.6 19.1999C9.6 15.2471 11.2944 14.3999 19.2 14.3999C27.1056 14.3999 28.8 15.2471 28.8 19.1999C28.8 23.1527 27.1056 23.9999 19.2 23.9999Z" fill="#D9D9D9"/>
<path d="M32.4 7.19988C32.4 4.81646 30.4994 2.39988 27.6 2.39988C26.9373 2.39988 26.4 2.93714 26.4 3.59988C26.4 4.26262 26.9373 4.79988 27.6 4.79988C29.0206 4.79988 30 5.9833 30 7.19988C30 8.41646 29.0206 9.59988 27.6 9.59988C26.9373 9.59988 26.4 10.1371 26.4 10.7999C26.4 11.4626 26.9373 11.9999 27.6 11.9999C30.4994 11.9999 32.4 9.5833 32.4 7.19988Z" fill="#D9D9D9"/>
<path d="M10.8 2.39988C7.90062 2.39988 6 4.81646 6 7.19988C6 9.5833 7.90062 11.9999 10.8 11.9999C11.4627 11.9999 12 11.4626 12 10.7999C12 10.1371 11.4627 9.59988 10.8 9.59988C9.37938 9.59988 8.4 8.41646 8.4 7.19988C8.4 5.9833 9.37938 4.79988 10.8 4.79988C11.4627 4.79988 12 4.26262 12 3.59988C12 2.93714 11.4627 2.39988 10.8 2.39988Z" fill="#D9D9D9"/>
<path d="M28.8 14.3999C28.8 13.7371 29.3373 13.1999 30 13.1999C31.3319 13.1999 32.4916 13.2319 33.4773 13.335C34.4548 13.4371 35.335 13.6157 36.0735 13.9489C36.8404 14.2949 37.4636 14.8128 37.8714 15.5618C38.2647 16.2842 38.4 17.1166 38.4 17.9999C38.4 18.888 38.2629 19.6916 37.9284 20.3854C37.5842 21.0991 37.0633 21.6286 36.4154 21.9989C35.2066 22.6896 33.5828 22.7999 31.92 22.7999C31.2573 22.7999 30.72 22.2626 30.72 21.5999C30.72 20.9371 31.2573 20.3999 31.92 20.3999C33.6172 20.3999 34.6334 20.253 35.2246 19.9151C35.4767 19.7711 35.6458 19.5935 35.7666 19.3429C35.8971 19.0724 36 18.6546 36 17.9999C36 17.3403 35.8953 16.9513 35.7636 16.7094C35.6464 16.4941 35.4596 16.3049 35.0865 16.1366C34.685 15.9554 34.0952 15.8126 33.2277 15.7219C32.3684 15.6321 31.3081 15.5999 30 15.5999C29.3373 15.5999 28.8 15.0626 28.8 14.3999Z" fill="#D9D9D9"/>
<path d="M8.4 13.1999C9.06274 13.1999 9.6 13.7371 9.6 14.3999C9.6 15.0626 9.06274 15.5999 8.4 15.5999C7.09194 15.5999 6.03165 15.6321 5.17226 15.7219C4.30484 15.8126 3.71498 15.9554 3.31346 16.1366C2.94044 16.3049 2.75363 16.4941 2.63642 16.7094C2.50471 16.9513 2.4 17.3403 2.4 17.9999C2.4 18.6546 2.50294 19.0724 2.63339 19.3429C2.7542 19.5935 2.92333 19.7711 3.17537 19.9151C3.76662 20.253 4.78275 20.3999 6.48 20.3999C7.14274 20.3999 7.68 20.9371 7.68 21.5999C7.68 22.2626 7.14274 22.7999 6.48 22.7999C4.81725 22.7999 3.19338 22.6896 1.98463 21.9989C1.33667 21.6286 0.815795 21.0991 0.471611 20.3854C0.137063 19.6916 0 18.888 0 17.9999C0 17.1166 0.13529 16.2842 0.528578 15.5618C0.936373 14.8128 1.55956 14.2949 2.32654 13.9489C3.06502 13.6157 3.94516 13.4371 4.92274 13.335C5.90835 13.2319 7.06806 13.1999 8.4 13.1999Z" fill="#D9D9D9"/>
</svg>
