<svg width="25" height="24" viewBox="0 0 25 24" fill="none" xmlns="http://www.w3.org/2000/svg">
<path d="M4.90887 5.99988C4.90887 9.3136 7.54618 11.9999 10.7995 11.9999C14.0528 11.9999 16.6901 9.3136 16.6901 5.99988C16.6901 2.68616 14.0528 -0.00012207 10.7995 -0.00012207C7.54618 -0.00012207 4.90887 2.68616 4.90887 5.99988Z" fill="#D9D9D9"/>
<path d="M0 18.9999C0 23.1174 1.90614 23.9999 10.7995 23.9999C19.6929 23.9999 21.599 23.1174 21.599 18.9999C21.599 14.8824 19.6929 13.9999 10.7995 13.9999C1.90614 13.9999 0 14.8824 0 18.9999Z" fill="#D9D9D9"/>
<path d="M23.324 7.29279C23.7074 6.90222 24.329 6.90222 24.7124 7.29279C25.0959 7.68329 25.0959 8.31647 24.7124 8.70697L20.7497 12.7432C20.5476 12.9492 20.2792 13.0465 20.0144 13.0353C19.7723 13.0284 19.5326 12.9309 19.3479 12.7428L17.9595 11.3286C17.576 10.938 17.576 10.3049 17.9595 9.91437C18.3429 9.5238 18.9645 9.5238 19.3479 9.91437L20.0491 10.6285L23.324 7.29279Z" fill="#D9D9D9"/>
</svg>
