<svg width="24" height="24" viewBox="0 0 24 24" fill="none" xmlns="http://www.w3.org/2000/svg">
<path d="M12.3926 0.252824C12.1876 0.0889641 11.9353 0 11.6757 0C11.416 0 11.1637 0.0889641 10.9588 0.252824L1.35204 7.93256C0.930739 8.26938 0.589907 8.70071 0.35558 9.19359C0.121253 9.68648 -0.000369478 10.2279 8.43139e-07 10.7765V21.6001C8.43139e-07 22.2366 0.246023 22.847 0.683946 23.2971C1.12187 23.7472 1.71582 24 2.33514 24H7.00541C7.62472 24 8.21867 23.7472 8.6566 23.2971C9.09452 22.847 9.34054 22.2366 9.34054 21.6001V14.4003H14.0108V21.6001C14.0108 22.2366 14.2568 22.847 14.6948 23.2971C15.1327 23.7472 15.7266 24 16.3459 24H21.0162C21.6355 24 22.2295 23.7472 22.6674 23.2971C23.1053 22.847 23.3513 22.2366 23.3513 21.6001V10.7765C23.3514 10.2277 23.2295 9.68616 22.9947 9.19326C22.76 8.70036 22.4187 8.26914 21.997 7.93256L12.3926 0.252824Z" fill="#D9D9D9"/>
</svg>
