<svg width="18" height="20" viewBox="0 0 18 20" fill="none" xmlns="http://www.w3.org/2000/svg">
<path d="M12.75 4.75L9 1M9 1L5.25 4.75M9 1L9 11.5" stroke="white" stroke-width="1.5" stroke-linecap="round" stroke-linejoin="round"/>
<path fill-rule="evenodd" clip-rule="evenodd" d="M3.75 7.222C3.75 6.72149 3.27653 6.34824 2.81149 6.53329C0.605217 7.41118 0 9.2361 0 12.7793C0 18.5196 1.5885 19.75 9 19.75C16.4115 19.75 18 18.5196 18 12.7793C18 9.2361 17.3948 7.41118 15.1885 6.53329C14.7235 6.34824 14.25 6.72149 14.25 7.222C14.25 7.56134 14.4757 7.85247 14.7855 7.99089C15.0205 8.09589 15.2082 8.20909 15.3608 8.32728C16.0642 8.87206 16.5 9.91155 16.5 12.7793C16.5 15.6471 16.0642 16.6866 15.3608 17.2314C14.9682 17.5354 14.3428 17.8066 13.2785 17.9898C12.2146 18.1729 10.827 18.25 9 18.25C7.17303 18.25 5.78539 18.1729 4.72148 17.9898C3.65717 17.8066 3.03181 17.5354 2.63919 17.2314C1.9358 16.6866 1.5 15.6471 1.5 12.7793C1.5 9.91155 1.9358 8.87206 2.63919 8.32728C2.79178 8.20909 2.97952 8.09589 3.21452 7.99089C3.52434 7.85247 3.75 7.56134 3.75 7.222Z" fill="white"/>
</svg>
