<svg width="28" height="30" viewBox="0 0 28 30" fill="none" xmlns="http://www.w3.org/2000/svg">
<path d="M6.9231 18.3077L10.3846 18.3077" stroke="#131835" stroke-width="2" stroke-linecap="round" stroke-linejoin="round"/>
<path d="M6.9231 22.9231L10.3846 22.9231" stroke="#131835" stroke-width="2" stroke-linecap="round" stroke-linejoin="round"/>
<path fill-rule="evenodd" clip-rule="evenodd" d="M9.23077 0C9.78305 0 10.2308 0.447715 10.2308 1V2.26259C11.3222 2.18671 12.524 2.15385 13.8462 2.15385C15.1684 2.15385 16.3701 2.18671 17.4615 2.26259V1C17.4615 0.447715 17.9093 0 18.4615 0C19.0138 0 19.4615 0.447715 19.4615 1V2.46912C24.8912 3.24731 26.9465 5.64165 27.5138 11.5385C27.5449 11.8612 27.5715 12.1944 27.5939 12.5385C27.615 12.8617 27.6324 13.1945 27.6465 13.5371C27.678 14.3076 27.6923 15.1276 27.6923 16C27.6923 16.872 27.678 17.6916 27.6465 18.4617C27.6325 18.8047 27.615 19.1379 27.5939 19.4615C27.5716 19.8044 27.5451 20.1366 27.5141 20.4584C26.9087 26.7592 24.6054 29.0625 18.3045 29.668C17.9828 29.6989 17.6506 29.7254 17.3077 29.7478C16.9841 29.7689 16.6509 29.7863 16.3079 29.8004C15.5378 29.8319 14.7182 29.8462 13.8462 29.8462C2.44385 29.8462 0 27.4023 0 16C0 15.1276 0.0143073 14.3076 0.0458403 13.5371C0.0598614 13.1945 0.0772882 12.8617 0.0983773 12.5385C0.120822 12.1944 0.147414 11.8612 0.178464 11.5385C0.745778 5.64165 2.80111 3.2473 8.23077 2.46912V1C8.23077 0.447715 8.67848 0 9.23077 0ZM8.23077 4.49215C6.53357 4.76004 5.37719 5.18959 4.5583 5.78994C3.34279 6.68105 2.53135 8.23087 2.18847 11.5385H25.5038C25.161 8.23087 24.3495 6.68105 23.134 5.78994C22.3151 5.18959 21.1587 4.76004 19.4615 4.49215V5.61538C19.4615 6.16767 19.0138 6.61538 18.4615 6.61538C17.9093 6.61538 17.4615 6.16767 17.4615 5.61538V4.26911C16.4161 4.1919 15.2193 4.15385 13.8462 4.15385C12.473 4.15385 11.2762 4.1919 10.2308 4.26911V5.61538C10.2308 6.16767 9.78305 6.61538 9.23077 6.61538C8.67848 6.61538 8.23077 6.16767 8.23077 5.61538V4.49215ZM24.8176 20.525C25.0558 20.4935 25.2859 20.4702 25.5046 20.4534C25.2087 23.3124 24.5631 24.8525 23.6309 25.7847C22.6987 26.7169 21.1586 27.3625 18.2995 27.6584C18.3164 27.4397 18.3396 27.2096 18.3712 26.9715C18.5751 25.4312 19.1056 23.6932 20.3225 22.4763C21.5394 21.2594 23.2774 20.7289 24.8176 20.525ZM16.3885 26.709C16.3373 27.0951 16.305 27.462 16.2856 27.7996C15.5321 27.8314 14.7207 27.8462 13.8462 27.8462C11.0412 27.8462 8.92373 27.6932 7.30624 27.3338C5.71146 26.9793 4.72796 26.4513 4.06143 25.7847C3.39489 25.1182 2.8668 24.1347 2.51238 22.5399C2.1529 20.9224 2 18.8049 2 16C2 15.1169 2.01504 14.2982 2.04753 13.5385H25.6448C25.6773 14.2982 25.6923 15.1169 25.6923 16C25.6923 16.8746 25.6776 17.686 25.6457 18.4395C25.3082 18.4588 24.9413 18.4912 24.5551 18.5423C22.8273 18.7711 20.576 19.3944 18.9083 21.0621C17.2406 22.7298 16.6172 24.9811 16.3885 26.709Z" fill="#131835"/>
</svg>
