<svg width="13" height="13" viewBox="0 0 13 13" fill="none" xmlns="http://www.w3.org/2000/svg">
<path d="M6.76831 7.93998C7.12275 8.18966 7.49435 8.39961 7.87737 8.55849C8.1152 8.64474 8.48841 8.4005 8.76282 8.22092C8.83142 8.17603 8.89384 8.13518 8.94642 8.10454L8.96368 8.09485C9.22217 7.9497 9.50919 7.78851 9.87827 7.86622C10.2098 7.93431 11.3475 8.83086 11.6619 9.14862C11.8677 9.3529 11.9821 9.56852 11.9992 9.78982C12.0335 10.6126 10.9302 11.5375 10.6672 11.6964C10.1069 12.105 9.35804 12.0993 8.45478 11.6907C7.48863 11.2992 6.33383 10.4764 5.21904 9.47773C4.81999 9.12024 4.05364 8.36755 3.83555 8.11616C2.70934 6.89617 1.76034 5.58539 1.31443 4.52429C1.1029 4.07602 1 3.66179 1 3.29296C1 2.9298 1.1029 2.60636 1.30299 2.32832C1.42305 2.11837 2.38919 0.972146 3.241 1.00052C3.45253 1.02321 3.66977 1.13103 3.88129 1.3353C4.20143 1.64739 5.12184 2.77659 5.19045 3.11138C5.26872 3.47207 5.10642 3.7568 4.96021 4.01331L4.95034 4.03062C4.91738 4.08756 4.87271 4.1551 4.82386 4.22894C4.64392 4.50096 4.40744 4.85844 4.49242 5.08605C4.70451 5.60809 5.00751 6.11878 5.37281 6.58976C5.77823 7.07449 6.41386 7.69031 6.76831 7.93998Z" stroke="#212135"/>
</svg>
