<svg width="18" height="17" viewBox="0 0 18 17" fill="none" xmlns="http://www.w3.org/2000/svg">
<path d="M12.75 7.75L9 11.5M9 11.5L5.25 7.75M9 11.5L9 1" stroke="white" stroke-width="1.5" stroke-linecap="round" stroke-linejoin="round"/>
<path fill-rule="evenodd" clip-rule="evenodd" d="M3.75 4.222C3.75 3.72149 3.27653 3.34824 2.81149 3.53329C0.605217 4.41118 0 6.23609 0 9.77931C0 15.5196 1.5885 16.7499 9 16.7499C16.4115 16.7499 18 15.5196 18 9.77931C18 6.23609 17.3948 4.41118 15.1885 3.53329C14.7235 3.34824 14.25 3.72149 14.25 4.222C14.25 4.56134 14.4757 4.85247 14.7855 4.99089C15.0205 5.09589 15.2082 5.20909 15.3608 5.32728C16.0642 5.87205 16.5 6.91154 16.5 9.77931C16.5 12.6471 16.0642 13.6866 15.3608 14.2313C14.9682 14.5354 14.3428 14.8066 13.2785 14.9897C12.2146 15.1729 10.827 15.2499 9 15.2499C7.17303 15.2499 5.78539 15.1729 4.72148 14.9897C3.65716 14.8066 3.03181 14.5354 2.63919 14.2313C1.9358 13.6866 1.5 12.6471 1.5 9.77931C1.5 6.91154 1.9358 5.87205 2.63919 5.32728C2.79178 5.20909 2.97952 5.09589 3.21452 4.99089C3.52434 4.85247 3.75 4.56134 3.75 4.222Z" fill="white"/>
</svg>
