<svg width="20" height="20" viewBox="0 0 20 20" fill="none" xmlns="http://www.w3.org/2000/svg">
<rect x="10.8333" width="8.33328" height="1.66666" rx="0.833328" transform="rotate(90 10.8333 0)" fill="#212135"/>
<path fill-rule="evenodd" clip-rule="evenodd" d="M2 10.0002C2 12.7241 2.80933 14.6685 4.07045 15.9297C5.33156 17.1908 7.27597 18.0001 9.99993 18.0001C12.7239 18.0001 14.6683 17.1908 15.9294 15.9297C17.1905 14.6685 17.9999 12.7241 17.9999 10.0002C17.9999 7.27622 17.1905 5.33181 15.9294 4.07069C15.7738 3.91511 15.6079 3.76641 15.4313 3.62526C15.1704 3.41667 14.9999 3.10923 14.9999 2.7752V2.59769C14.9999 1.86373 15.7642 1.38894 16.3592 1.81869C18.7014 3.51043 19.9999 6.32249 19.9999 10.0002C19.9999 16.2501 16.2499 20.0001 9.99993 20.0001C3.74998 20.0001 0 16.2501 0 10.0002C0 6.32249 1.29845 3.51043 3.64065 1.81869C4.23564 1.38894 4.99997 1.86373 4.99997 2.59769V2.7752C4.99997 3.10923 4.82946 3.41667 4.56856 3.62526C4.392 3.76641 4.22602 3.91511 4.07045 4.07069C2.80933 5.33181 2 7.27622 2 10.0002ZM9.99353 0.000245452H10.0063C10.0042 0.000244617 10.0021 0.000244141 9.99993 0.000244141C9.9978 0.000244141 9.99567 0.000244617 9.99353 0.000245452Z" fill="#212135"/>
</svg>
