<svg width="46" height="40" viewBox="0 0 46 40" fill="none" xmlns="http://www.w3.org/2000/svg">
<path d="M17.9419 16.6864C17.9419 15.9204 17.3195 15.2983 16.5538 15.2983H13.8249L11.6226 12.8568C11.0001 12.1389 10.0905 11.7559 9.13311 11.7559H6.64365C5.54267 11.7559 4.48947 12.2825 3.86704 13.2398L0.2766 18.506C-0.0586701 18.9848 -0.106423 19.607 0.228848 20.0858C0.516032 20.5166 0.9468 20.7082 1.37788 20.7082C1.80865 20.7082 2.23941 20.5169 2.5269 20.0858L4.39393 17.3569V31.2399C4.39393 31.9101 4.8728 32.5804 5.54296 32.6762C6.4045 32.8198 7.17054 32.1496 7.17054 31.288V22.671H8.51098V31.1923C8.51098 31.8625 8.98984 32.5327 9.66 32.6286C10.5215 32.7722 11.2876 32.1019 11.2876 31.2404V16.5427L12.245 17.5959C12.5321 17.8831 12.8674 18.0748 13.2982 18.0748H16.6014C17.3194 18.0744 17.9419 17.4523 17.9419 16.6863L17.9419 16.6864Z" fill="#1E1E1E"/>
<path d="M10.8562 7.87781C10.8562 9.56985 9.4844 10.9417 7.79236 10.9417C6.09998 10.9417 4.72852 9.56985 4.72852 7.87781C4.72852 6.18577 6.09998 4.81396 7.79236 4.81396C9.4844 4.81396 10.8562 6.18577 10.8562 7.87781Z" fill="#1E1E1E"/>
<path d="M20.4781 34.2075H17.3666C15.6432 34.2075 14.3027 35.5957 14.3027 37.2714V39.3297C14.3027 39.7127 14.5899 39.9999 14.9729 39.9999H22.9199C23.3029 39.9999 23.5901 39.7127 23.5901 39.3297V37.2714C23.542 35.548 22.1538 34.2075 20.4781 34.2075Z" fill="#1E1E1E"/>
<path d="M21.533 30.6648C21.533 32.1191 20.3542 33.2979 18.8999 33.2979C17.446 33.2979 16.2668 32.1191 16.2668 30.6648C16.2668 29.2109 17.446 28.0317 18.8999 28.0317C20.3542 28.0317 21.533 29.2109 21.533 30.6648Z" fill="#1E1E1E"/>
<path d="M31.4422 34.2075H28.3306C26.6072 34.2075 25.2668 35.5957 25.2668 37.2714V39.3297C25.2668 39.7127 25.554 39.9999 25.937 39.9999H33.8839C34.2669 39.9999 34.5541 39.7127 34.5541 39.3297V37.2714C34.506 35.548 33.1175 34.2075 31.4422 34.2075Z" fill="#1E1E1E"/>
<path d="M32.4943 30.6648C32.4943 32.1191 31.3156 33.2979 29.8616 33.2979C28.4073 33.2979 27.2285 32.1191 27.2285 30.6648C27.2285 29.2109 28.4073 28.0317 29.8616 28.0317C31.3156 28.0317 32.4943 29.2109 32.4943 30.6648Z" fill="#1E1E1E"/>
<path d="M42.4051 34.2075H39.2935C37.5701 34.2075 36.2297 35.5957 36.2297 37.2714V39.3297C36.2297 39.7127 36.5169 39.9999 36.8999 39.9999H44.8468C45.2298 39.9999 45.517 39.7127 45.517 39.3297V37.2714C45.4689 35.548 44.0807 34.2075 42.4051 34.2075Z" fill="#1E1E1E"/>
<path d="M43.4576 30.6648C43.4576 32.1191 42.2788 33.2979 40.8245 33.2979C39.3702 33.2979 38.1914 32.1191 38.1914 30.6648C38.1914 29.2109 39.3702 28.0317 40.8245 28.0317C42.2788 28.0317 43.4576 29.2109 43.4576 30.6648Z" fill="#1E1E1E"/>
<path fill-rule="evenodd" clip-rule="evenodd" d="M32 24C22.118 24 20 21.882 20 12C20 2.118 22.118 0 32 0C41.882 0 44 2.118 44 12C44 21.882 41.882 24 32 24ZM27 11C26.4477 11 26 11.4477 26 12C26 12.5523 26.4477 13 27 13H37C37.5523 13 38 12.5523 38 12C38 11.4477 37.5523 11 37 11H27ZM29 7C29 6.44772 29.4477 6 30 6H34C34.5523 6 35 6.44772 35 7C35 7.55228 34.5523 8 34 8H30C29.4477 8 29 7.55228 29 7ZM30 16C29.4477 16 29 16.4477 29 17C29 17.5523 29.4477 18 30 18H34C34.5523 18 35 17.5523 35 17C35 16.4477 34.5523 16 34 16H30Z" fill="#1E1E1E"/>
</svg>
