<svg width="36" height="36" viewBox="0 0 36 36" fill="none" xmlns="http://www.w3.org/2000/svg">
<path fill-rule="evenodd" clip-rule="evenodd" d="M18 36C3.177 36 0 32.823 0 18C0 3.177 3.177 0 18 0C32.823 0 36 3.177 36 18C36 32.823 32.823 36 18 36ZM10.5 9C9.67157 9 9 9.67157 9 10.5C9 11.3284 9.67157 12 10.5 12H15C15.8284 12 16.5 11.3284 16.5 10.5C16.5 9.67157 15.8284 9 15 9H10.5ZM9 18C9 17.1716 9.67157 16.5 10.5 16.5H25.5C26.3284 16.5 27 17.1716 27 18C27 18.8284 26.3284 19.5 25.5 19.5H10.5C9.67157 19.5 9 18.8284 9 18ZM21 24C20.1716 24 19.5 24.6716 19.5 25.5C19.5 26.3284 20.1716 27 21 27H25.5C26.3284 27 27 26.3284 27 25.5C27 24.6716 26.3284 24 25.5 24H21Z" fill="#1E1E1E"/>
</svg>
