<svg width="36" height="36" viewBox="0 0 36 36" fill="none" xmlns="http://www.w3.org/2000/svg">
<path fill-rule="evenodd" clip-rule="evenodd" d="M18 36C3.76069 36 -2.17302 34.1053 0.708797 18C0.823823 17.4328 0.934529 16.8822 1.04198 16.3478C3.62669 3.49301 4.32903 0 18 0C31.671 0 32.3734 3.49306 34.958 16.3481C35.0655 16.8824 35.1762 17.4329 35.2912 18C38.1731 34.1053 32.2393 36 18 36ZM24 9C24 8.17157 24.6716 7.5 25.5 7.5C26.3284 7.5 27 8.17157 27 9C27 11.907 25.8949 14.1975 24.1528 15.7461C22.4382 17.2702 20.1946 18 18 18C15.8054 18 13.5617 17.2702 11.8472 15.7461C10.1051 14.1975 9 11.907 9 9C9 8.17157 9.67157 7.5 10.5 7.5C11.3284 7.5 12 8.17157 12 9C12 11.093 12.7699 12.5525 13.8403 13.5039C14.9383 14.4798 16.4446 15 18 15C19.5554 15 21.0617 14.4798 22.1597 13.5039C23.2301 12.5525 24 11.093 24 9Z" fill="#1E1E1E"/>
</svg>
