<svg width="36" height="36" viewBox="0 0 36 36" fill="none" xmlns="http://www.w3.org/2000/svg">
<path fill-rule="evenodd" clip-rule="evenodd" d="M18 0C32.823 0 36 2.66672 36 16C36 24.6667 34.5004 30 27.7504 30C24.1431 30 23.0701 31.7136 22.0709 33.3092C21.2004 34.6994 20.3859 36.0001 18.0004 36C15.615 35.9999 14.8005 34.6993 13.93 33.3092C12.9307 31.7135 11.8577 30 8.25037 30C1.50037 30 0 24.4961 0 16C0 2.824 3.177 0 18 0ZM19.5 12C19.5 11.1716 20.1716 10.5 21 10.5H25.5C26.3284 10.5 27 11.1716 27 12C27 12.8284 26.3284 13.5 25.5 13.5H21C20.1716 13.5 19.5 12.8284 19.5 12ZM10.5 16.5C9.67157 16.5 9 17.1716 9 18C9 18.8284 9.67157 19.5 10.5 19.5H25.5C26.3284 19.5 27 18.8284 27 18C27 17.1716 26.3284 16.5 25.5 16.5H10.5Z" fill="#1E1E1E"/>
</svg>
