<svg width="36" height="38" viewBox="0 0 36 38" fill="none" xmlns="http://www.w3.org/2000/svg">
<path d="M0.190674 31.0983C-0.118355 31.4847 -0.0410304 32.0254 0.345055 32.3345L6.56358 37.1622C6.94993 37.4713 7.49063 37.3939 7.7997 37.0079L10.426 33.6476L2.81701 27.7378L0.190674 31.0983Z" fill="black"/>
<path d="M35.4933 20.8632C35.0299 20.3224 34.296 20.1292 33.6007 20.3224L27.8456 22.022V22.4083C27.7297 24.0691 26.5324 25.4595 24.8714 25.7686L24.4851 25.8459C22.3607 26.2708 20.1978 26.5025 18.0348 26.541L16.2579 26.5795C15.6787 26.5795 15.215 26.1161 15.1765 25.5366C15.1765 24.9574 15.6399 24.4937 16.2194 24.4551L17.9962 24.4166C20.0433 24.3781 22.0904 24.1461 24.0989 23.76L24.4852 23.6827C25.1803 23.5669 25.7214 22.9488 25.7599 22.2537C25.7984 21.8288 25.644 21.4424 25.3735 21.0949C25.103 20.7858 24.7169 20.5927 24.292 20.5541L15.0222 20.0519C14.018 20.0134 12.9751 20.2837 12.1639 20.8632L4.40039 26.3479L12.2025 32.4505L19.9274 33.3002C21.2794 33.4546 22.631 33.1071 23.7125 32.2573L35.2612 23.5668C35.6861 23.2578 35.9563 22.7944 35.9951 22.2537C36.0337 21.7517 35.8405 21.2495 35.4929 20.8632L35.4933 20.8632Z" fill="black"/>
<path d="M25.1806 6.22409L27.2277 7.11238V0.662109H22.2453V7.11238L24.2924 6.22409C24.5626 6.10824 24.9102 6.10824 25.1807 6.22409H25.1806Z" fill="black"/>
<path d="M16.9536 17.6571H32.5193C33.6392 17.6571 34.5278 16.7688 34.5278 15.6485V2.67074C34.5278 1.55077 33.6395 0.662206 32.5193 0.662206H29.4292V8.81195C29.4292 9.1983 29.2361 9.54588 28.927 9.739C28.7339 9.85486 28.5407 9.93218 28.309 9.93218C28.1546 9.93218 28 9.89365 27.8841 9.85486L24.7168 8.46438L21.5494 9.85486C21.2019 10.0092 20.8155 9.97071 20.5065 9.77753C20.1975 9.58435 20.0043 9.2368 20.0043 8.85048L20.0051 0.662109H16.9151C15.7951 0.662109 14.9066 1.5504 14.9066 2.67065V15.6098C14.9454 16.7298 15.8336 17.6566 16.9536 17.6566L16.9536 17.6571Z" fill="black"/>
</svg>
