<svg width="16" height="16" viewBox="0 0 16 16" fill="none" xmlns="http://www.w3.org/2000/svg">
<path d="M4.6665 4.66699H6.6665" stroke="white" stroke-width="1.5" stroke-linecap="round" stroke-linejoin="round"/>
<path d="M4.6665 8H11.3332" stroke="white" stroke-width="1.5" stroke-linecap="round" stroke-linejoin="round"/>
<path d="M0.75 8C0.75 9.62988 0.838312 10.8884 1.0557 11.8666C1.2712 12.8362 1.60343 13.4838 2.05983 13.9402C2.51623 14.3966 3.16376 14.7288 4.1334 14.9443C5.11156 15.1617 6.37012 15.25 8 15.25C8.71706 15.25 9.36504 15.233 9.95117 15.1948C12.0482 15.0579 13.2258 14.6546 13.9402 13.9402C14.6546 13.2258 15.0579 12.0482 15.1948 9.95117C15.233 9.36504 15.25 8.71706 15.25 8C15.25 6.37012 15.1617 5.11156 14.9443 4.1334C14.7288 3.16376 14.3966 2.51623 13.9402 2.05983C13.4838 1.60343 12.8362 1.2712 11.8666 1.0557C10.8884 0.838311 9.62988 0.75 8 0.75C6.37012 0.75 5.11156 0.838311 4.1334 1.0557C3.16376 1.2712 2.51623 1.60343 2.05983 2.05983C1.60343 2.51623 1.2712 3.16376 1.0557 4.1334C0.838312 5.11156 0.75 6.37012 0.75 8Z" stroke="white" stroke-width="1.5" stroke-linecap="round" stroke-linejoin="round"/>
</svg>
