<svg width="23" height="26" viewBox="0 0 23 26" fill="none" xmlns="http://www.w3.org/2000/svg">
<path d="M7.95453 23.8637C9.65907 25.3788 13.0682 25.3788 14.7727 23.8637" stroke="#131835" stroke-width="2" stroke-linecap="round" stroke-linejoin="round"/>
<path fill-rule="evenodd" clip-rule="evenodd" d="M12.4985 1.19545C12.4995 1.17588 12.5 1.15618 12.5 1.13636C12.5 0.508766 11.9912 0 11.3636 0C10.736 0 10.2272 0.508766 10.2272 1.13636C10.2272 1.1562 10.2278 1.17591 10.2288 1.1955C6.42462 1.74381 2.8451 6.02204 3.40914 10.7953C3.70128 12.256 2.78145 13.0299 1.82406 13.8353C0.919378 14.5964 -0.018843 15.3858 0.000287713 16.8095C0.000287713 18.8049 1.13637 19.8862 2.80488 20.4225C2.80488 20.4225 5.86066 21.5908 11.3638 21.5908C16.8669 21.5908 19.9226 20.4225 19.9226 20.4225C21.5911 19.8862 22.7275 18.7499 22.7272 16.8095C22.727 15.3735 21.7894 14.5839 20.8897 13.8263C19.9366 13.0236 19.0261 12.2568 19.3184 10.7953C19.4198 9.93713 19.3873 9.09493 19.2436 8.28753C18.7198 8.72981 18.0608 9.01703 17.3375 9.07841C17.3885 9.54266 17.3912 10.0173 17.3395 10.4962C17.1236 11.6899 17.3782 12.7234 17.918 13.5821C18.3924 14.3366 19.0635 14.9025 19.494 15.2655L19.52 15.2875C20.5779 16.1798 20.7272 16.3992 20.7272 16.8097C20.7273 17.3623 20.5765 17.6666 20.4116 17.8654C20.225 18.0902 19.8895 18.3324 19.3106 18.5184L19.259 18.535L19.2172 18.5511L19.2155 18.5517L19.215 18.5519L19.2084 18.5542C19.1968 18.5584 19.1736 18.5667 19.1389 18.5784C19.0696 18.6019 18.9546 18.6394 18.795 18.6863C18.4758 18.7801 17.9785 18.9119 17.3124 19.0459C15.9806 19.3138 13.9732 19.5908 11.3638 19.5908C8.75431 19.5908 6.74688 19.3138 5.4151 19.0459C4.74905 18.9119 4.25176 18.7801 3.93256 18.6863C3.77296 18.6394 3.65792 18.6019 3.5886 18.5784C3.55394 18.5667 3.53072 18.5584 3.51909 18.5542L3.51253 18.5519L3.51203 18.5517L3.51084 18.5512L3.51035 18.5511L3.46847 18.535L3.41686 18.5184C2.81546 18.3251 2.48616 18.0887 2.30872 17.8773C2.15706 17.6966 2.00029 17.4004 2.00029 16.8095V16.796L2.00011 16.7826C1.99507 16.4078 2.11936 16.202 3.19179 15.2983L3.21823 15.276C3.65097 14.9115 4.32415 14.3445 4.80099 13.5905C5.34348 12.7327 5.60488 11.6961 5.38805 10.4963C5.18012 8.57212 5.85082 6.71774 7.0062 5.32533C8.19512 3.8925 9.73032 3.13627 11.0444 3.13627H11.6831C12.4605 3.13627 13.3153 3.40093 14.13 3.91377C14.4937 3.31523 15.0366 2.83758 15.6841 2.55522C14.7071 1.83628 13.6124 1.35595 12.4985 1.19545Z" fill="#131835"/>
<circle cx="17.0454" cy="5.68153" r="2.27272" fill="#131835"/>
</svg>
