<svg width="32" height="20" viewBox="0 0 32 20" fill="none" xmlns="http://www.w3.org/2000/svg">
<path d="M16 10C13.2386 10 11 7.76142 11 5C11 2.23858 13.2386 0 16 0C18.7614 0 21 2.23858 21 5C21 7.76142 18.7614 10 16 10Z" fill="#212135"/>
<path d="M16 20C9.412 20 8 19.294 8 16C8 12.706 9.412 12 16 12C22.588 12 24 12.706 24 16C24 19.294 22.588 20 16 20Z" fill="#212135"/>
<path d="M27 6C27 4.01382 25.4161 2 23 2C22.4477 2 22 2.44772 22 3C22 3.55228 22.4477 4 23 4C24.1839 4 25 4.98618 25 6C25 7.01382 24.1839 8 23 8C22.4477 8 22 8.44772 22 9C22 9.55228 22.4477 10 23 10C25.4161 10 27 7.98618 27 6Z" fill="#212135"/>
<path d="M9 2C6.58385 2 5 4.01382 5 6C5 7.98618 6.58385 10 9 10C9.55228 10 10 9.55228 10 9C10 8.44772 9.55228 8 9 8C7.81615 8 7 7.01382 7 6C7 4.98618 7.81615 4 9 4C9.55228 4 10 3.55228 10 3C10 2.44772 9.55228 2 9 2Z" fill="#212135"/>
<path d="M24 12C24 11.4477 24.4477 11 25 11C26.11 11 27.0764 11.0267 27.8977 11.1126C28.7124 11.1977 29.4458 11.3466 30.0612 11.6242C30.7004 11.9125 31.2197 12.3441 31.5595 12.9683C31.8873 13.5702 32 14.2639 32 15C32 15.7401 31.8858 16.4098 31.607 16.9879C31.3202 17.5827 30.8861 18.024 30.3461 18.3325C29.3388 18.9081 27.9856 19 26.6 19C26.0477 19 25.6 18.5523 25.6 18C25.6 17.4477 26.0477 17 26.6 17C28.0144 17 28.8612 16.8776 29.3539 16.596C29.5639 16.476 29.7048 16.328 29.8055 16.1192C29.9142 15.8938 30 15.5456 30 15C30 14.4504 29.9127 14.1262 29.803 13.9246C29.7053 13.7452 29.5496 13.5875 29.2388 13.4473C28.9042 13.2963 28.4126 13.1773 27.6898 13.1017C26.9736 13.0269 26.09 13 25 13C24.4477 13 24 12.5523 24 12Z" fill="#212135"/>
<path d="M7 11C7.55228 11 8 11.4477 8 12C8 12.5523 7.55228 13 7 13C5.90995 13 5.02637 13.0269 4.31021 13.1017C3.58737 13.1773 3.09582 13.2963 2.76122 13.4473C2.45036 13.5875 2.29469 13.7452 2.19702 13.9246C2.08726 14.1262 2 14.4504 2 15C2 15.5456 2.08578 15.8938 2.19449 16.1192C2.29517 16.328 2.43611 16.476 2.64614 16.596C3.13885 16.8776 3.98563 17 5.4 17C5.95228 17 6.4 17.4477 6.4 18C6.4 18.5523 5.95228 19 5.4 19C4.01437 19 2.66115 18.9081 1.65386 18.3325C1.11389 18.024 0.679829 17.5827 0.393009 16.9879C0.114219 16.4098 0 15.7401 0 15C0 14.2639 0.112741 13.5702 0.440482 12.9683C0.780311 12.3441 1.29964 11.9125 1.93878 11.6242C2.55418 11.3466 3.28763 11.1977 4.10229 11.1126C4.92363 11.0267 5.89005 11 7 11Z" fill="#212135"/>
</svg>
