<svg width="10" height="13" viewBox="0 0 10 13" fill="none" xmlns="http://www.w3.org/2000/svg">
<path d="M9.06152 3.39355L8.62207 5.01953H0.360352L0.808594 3.39355H9.06152ZM4.94824 13L0.615234 7.88477L0.606445 6.47852H2.69824C3.20801 6.47852 3.62695 6.38477 3.95508 6.19727C4.28906 6.00391 4.53809 5.74316 4.70215 5.41504C4.87207 5.08691 4.95703 4.71777 4.95703 4.30762C4.95703 3.87988 4.88086 3.50195 4.72852 3.17383C4.57617 2.83984 4.33301 2.5791 3.99902 2.3916C3.66504 2.2041 3.22266 2.11035 2.67188 2.11035H0.369141L0.870117 0.203125H2.67188C3.71484 0.203125 4.58203 0.361328 5.27344 0.677734C5.9707 0.988281 6.49219 1.44238 6.83789 2.04004C7.18945 2.63184 7.36523 3.34668 7.36523 4.18457C7.36523 4.91699 7.24219 5.56445 6.99609 6.12695C6.75586 6.68359 6.36621 7.1377 5.82715 7.48926C5.28809 7.84082 4.5791 8.0752 3.7002 8.19238L7.62891 12.877V13H4.94824ZM9.07031 0.203125L8.62207 1.8291H1.82812L2.27637 0.203125H9.07031Z" fill="#1E1E1E"/>
</svg>
