<svg width="50" height="50" viewBox="0 0 50 50" fill="none" xmlns="http://www.w3.org/2000/svg">
<rect width="50" height="50" rx="5" fill="#F4F7FF"/>
<path d="M22.7424 19.1442L23.5949 19.5196L22.7424 19.1442ZM19.8281 23.9091L18.9755 23.5338H18.9755L19.8281 23.9091ZM26.7538 14.0097L27.133 13.0464L27.133 13.0464L26.7538 14.0097ZM26.4471 19.898L27.4475 19.896L27.4475 19.896L26.4471 19.898ZM27.6799 22.943L27.4926 23.9253H27.4934L27.6799 22.943ZM32.0765 23.38L31.1413 23.9264L31.1413 23.9264L32.0765 23.38ZM31.163 25.6613L32.0155 26.0367L31.163 25.6613ZM28.2487 30.4262L29.1012 30.8015H29.1012L28.2487 30.4262ZM24.2373 35.5607L23.8581 36.5241L24.2373 35.5607ZM24.544 29.6725L25.5443 29.6706L24.544 29.6725ZM23.3734 26.6273L23.5607 25.645L23.5589 25.645L23.3734 26.6273ZM18.9145 26.1904L19.8497 25.644L19.8497 25.644L18.9145 26.1904ZM24.9336 27.6077L23.9332 27.6096L24.9336 27.6077ZM24.9454 26.7708L25.7844 26.0756L24.9454 26.7708ZM26.0457 22.7995L26.8847 22.1042L26.0457 22.7995ZM21.8898 18.7689L18.9755 23.5338L20.6806 24.2845L23.5949 19.5196L21.8898 18.7689ZM27.133 13.0464C26.502 12.918 25.9258 13.2318 25.5374 13.5479C25.1621 13.8532 24.8092 14.2764 24.4746 14.7298C23.7977 15.6471 22.9546 17.028 21.8898 18.7689L23.5949 19.5196C24.688 17.7324 25.4632 16.4672 26.0589 15.6599C26.3606 15.251 26.5576 15.0422 26.6699 14.9508C26.769 14.8702 26.6182 15.0226 26.3746 14.973L27.133 13.0464ZM27.4475 19.896C27.8032 18.0108 28.0865 16.5162 28.1752 15.4794C28.2191 14.9668 28.2253 14.4737 28.1271 14.0726C28.0256 13.6581 27.7632 13.1746 27.133 13.0464L26.3746 14.973C26.1317 14.9236 26.1147 14.738 26.141 14.8453C26.1706 14.9662 26.1869 15.2189 26.1473 15.6812C26.0692 16.594 25.8119 17.9647 25.4467 19.8999L27.4475 19.896ZM27.0579 21.9607L27.4475 19.896L25.4467 19.8999L25.0571 21.9646L27.0579 21.9607ZM26.6833 23.9253H27.4926L27.8672 21.9607H27.0579L26.6833 23.9253ZM28.0011 21.9607C27.9554 21.9607 27.9105 21.9607 27.8665 21.9607L27.4934 23.9253C27.5365 23.9253 27.5807 23.9253 27.6265 23.9253L28.0011 21.9607ZM30.0163 21.9607H28.0011L27.6265 23.9253H29.6416L30.0163 21.9607ZM33.0117 22.8336C32.7376 22.2749 32.185 22.0965 31.7122 22.0259C31.2585 21.9581 30.661 21.9607 30.0163 21.9607L29.6416 23.9253C30.3523 23.9253 30.7714 23.9279 31.0491 23.9694C31.3076 24.008 31.2011 24.0481 31.1413 23.9264L33.0117 22.8336ZM32.0155 26.0367C32.3732 25.4518 32.7068 24.9111 32.9069 24.4618C33.1155 23.9933 33.286 23.3925 33.0117 22.8336L31.1413 23.9264C31.0815 23.8045 31.1713 23.7296 31.0575 23.9851C30.9352 24.2598 30.7048 24.6412 30.3104 25.286L32.0155 26.0367ZM29.1012 30.8015L32.0155 26.0367L30.3104 25.286L27.3961 30.0508L29.1012 30.8015ZM23.8581 36.5241C24.4891 36.6525 25.0652 36.3386 25.4537 36.0226C25.829 35.7172 26.1819 35.2941 26.5164 34.8407C27.1933 33.9233 28.0365 32.5424 29.1012 30.8015L27.3961 30.0508C26.3031 31.838 25.5279 33.1032 24.9322 33.9105C24.6304 34.3195 24.4334 34.5282 24.3211 34.6196C24.222 34.7003 24.3728 34.5478 24.6165 34.5974L23.8581 36.5241ZM23.5436 29.6744C23.1879 31.5596 22.9045 33.0543 22.8158 34.0911C22.772 34.6036 22.7658 35.0968 22.8639 35.4978C22.9654 35.9124 23.2278 36.3959 23.8581 36.5241L24.6165 34.5974C24.8594 34.6468 24.8764 34.8324 24.8501 34.7251C24.8205 34.6042 24.8042 34.3516 24.8437 33.8893C24.9218 32.9765 25.1792 31.6058 25.5443 29.6706L23.5436 29.6744ZM23.9332 27.6096L23.5436 29.6744L25.5443 29.6706L25.9339 27.6058L23.9332 27.6096ZM24.3078 25.645H23.5607L23.1861 27.6096H23.9332L24.3078 25.645ZM22.99 27.6097C23.0575 27.6097 23.1238 27.6097 23.1878 27.6096L23.5589 25.645C23.4969 25.6451 23.4325 25.6451 23.3646 25.6451L22.99 27.6097ZM20.9748 27.6097H22.99L23.3646 25.6451H21.3494L20.9748 27.6097ZM17.9793 26.7369C18.2535 27.2955 18.8061 27.4739 19.2789 27.5445C19.7325 27.6123 20.33 27.6097 20.9748 27.6097L21.3494 25.6451C20.6387 25.6451 20.2197 25.6426 19.942 25.6011C19.6835 25.5625 19.79 25.5224 19.8497 25.644L17.9793 26.7369ZM18.9755 23.5338C18.6178 24.1186 18.2842 24.6594 18.0842 25.1087C17.8756 25.5772 17.705 26.178 17.9793 26.7369L19.8497 25.644C19.9095 25.7659 19.8198 25.8409 19.9335 25.5853C20.0559 25.3106 20.2863 24.9292 20.6806 24.2845L18.9755 23.5338ZM25.9339 27.6058C25.9723 27.4024 26.0218 27.1512 26.0329 26.9371C26.0455 26.6947 26.02 26.3597 25.7844 26.0756L24.1064 27.4661C24.0544 27.4034 24.0243 27.3334 24.0103 27.2723C23.998 27.219 24.0015 27.1875 24.0007 27.2024C23.9999 27.218 23.9964 27.2543 23.9842 27.3288C23.9722 27.4028 23.9557 27.4904 23.9332 27.6096L25.9339 27.6058ZM23.9332 27.6096C24.0546 27.6096 24.1438 27.6097 24.2187 27.6116C24.2942 27.6134 24.3305 27.6167 24.346 27.6188C24.3608 27.6208 24.3293 27.6184 24.2791 27.5964C24.2216 27.5713 24.1584 27.5288 24.1064 27.4661L25.7844 26.0756C25.5487 25.7914 25.2241 25.7043 24.9836 25.6717C24.771 25.6429 24.5149 25.645 24.3078 25.645L23.9332 27.6096ZM25.0571 21.9646C25.0188 22.1679 24.9692 22.4192 24.9581 22.6333C24.9455 22.8756 24.971 23.2106 25.2067 23.4948L26.8847 22.1042C26.9367 22.167 26.9667 22.2369 26.9808 22.2981C26.9931 22.3514 26.9896 22.3828 26.9904 22.3679C26.9912 22.3523 26.9947 22.316 27.0068 22.2416C27.0189 22.1676 27.0354 22.0799 27.0579 21.9607L25.0571 21.9646ZM27.0579 21.9607C26.9365 21.9607 26.8473 21.9607 26.7723 21.9588C26.6969 21.9569 26.6605 21.9536 26.6451 21.9515C26.6302 21.9495 26.6618 21.952 26.712 21.9739C26.7695 21.9991 26.8327 22.0415 26.8847 22.1042L25.2067 23.4948C25.4423 23.7789 25.767 23.8661 26.0075 23.8986C26.22 23.9274 26.4762 23.9253 26.6833 23.9253L27.0579 21.9607Z" fill="#131835"/>
</svg>
