<svg width="23" height="20" viewBox="0 0 23 20" fill="none" xmlns="http://www.w3.org/2000/svg">
    <path
        d="M3.17221 11.2314H0.681437C0.305472 11.2314 0 11.5369 0 11.9129V18.9152C0 19.2912 0.305472 19.5967 0.681437 19.5967H3.17221C3.54817 19.5967 3.85364 19.2912 3.85364 18.9152V11.8894C3.85364 11.5369 3.54817 11.2314 3.17221 11.2314Z"
        fill="black" />
    <path
        d="M22.2995 12.9237C22.229 12.5947 22.0176 12.3128 21.7356 12.1483C21.4301 11.9838 21.1011 11.9603 20.7722 12.1013L16.1901 13.9576C16.2136 14.2161 16.1901 14.4746 16.0961 14.7095C15.7906 15.6495 14.8272 16.1899 13.8873 16.0019L10.0572 15.203C9.75169 15.1325 9.54021 14.827 9.6107 14.5216C9.6812 14.2161 9.98667 14.0046 10.2921 14.0751L14.1223 14.874C14.4982 14.9445 14.8742 14.733 14.9917 14.3571C15.1092 14.0046 14.9447 13.6051 14.6157 13.4407L10.7386 11.4433C9.98667 11.0439 9.09375 10.9969 8.27133 11.2554L5.02863 12.3598V18.3752L11.373 19.8791C12.6419 20.1845 13.9578 19.9026 15.0152 19.1271L21.9001 14.0516C22.229 13.7931 22.3935 13.3467 22.2995 12.9237Z"
        fill="black" />
    <path
        d="M16.237 11.7959C19.4797 11.7959 22.135 9.16415 22.135 5.89795C22.135 2.65525 19.5032 0 16.237 0C12.9943 0 10.339 2.63176 10.339 5.89795C10.3625 9.16415 12.9943 11.7959 16.237 11.7959ZM14.0752 6.25042C14.0752 6.15643 14.1457 6.08594 14.2397 6.08594H15.4616C15.908 6.08594 16.3075 5.82746 16.4955 5.428H14.2162C14.1222 5.428 14.0517 5.3575 14.0517 5.26351V4.62907C14.0517 4.53508 14.1222 4.46459 14.2162 4.46459H16.4485C16.2605 4.06512 15.861 3.80665 15.4146 3.80665H14.2162C14.1222 3.80665 14.0517 3.73615 14.0517 3.64216V2.96073C14.0517 2.86673 14.1222 2.79624 14.2162 2.79624H18.2578C18.3518 2.79624 18.4223 2.86673 18.4223 2.96073V3.59517C18.4223 3.68916 18.3518 3.75965 18.2578 3.75965H17.2004C17.3414 3.97113 17.4354 4.20611 17.5059 4.46459H18.2578C18.3518 4.46459 18.4223 4.53508 18.4223 4.62907V5.26351C18.4223 5.3575 18.3518 5.428 18.2578 5.428H17.5059C17.2944 6.39141 16.425 7.07285 15.4381 7.07285H15.2971L17.3884 9.21115C17.4354 9.25814 17.4589 9.32864 17.4119 9.37563C17.3884 9.44613 17.3414 9.46962 17.2709 9.46962H16.331C16.284 9.46962 16.237 9.44613 16.2135 9.42263L14.1222 7.28433C14.0987 7.26083 14.0752 7.21383 14.0752 7.16684V6.25042Z"
        fill="black" />
</svg>
