<svg width="50" height="50" viewBox="0 0 50 50" fill="none" xmlns="http://www.w3.org/2000/svg">
<rect width="50" height="50" rx="5" fill="#F4F7FF"/>
<path d="M14 25C14 27.2612 14.1139 29.0435 14.3844 30.4548C14.4724 30.3699 14.5644 30.2836 14.6604 30.1965C15.6223 29.3248 17.0654 28.3086 18.8356 28.0136C20.6163 27.7168 21.8305 28.1802 22.8089 28.5715L22.8305 28.5801C23.7743 28.9577 24.387 29.2028 25.3039 29.0194C25.6979 28.9406 26.0408 28.7431 26.4177 28.4045C26.7329 28.1213 27.0215 27.7897 27.3734 27.3853C27.4725 27.2714 27.5765 27.1518 27.6877 27.0259C28.6672 25.9158 29.9594 24.6044 32.2575 24.0299C33.8834 23.6234 35.0942 23.6475 35.9907 23.9261C35.9554 21.9873 35.8177 20.4296 35.5385 19.173C35.2119 17.7037 34.7052 16.7079 33.9986 16.0014C33.2921 15.2948 32.2963 14.7881 30.827 14.4615C29.3463 14.1325 27.4477 14 25 14C22.5523 14 20.6537 14.1325 19.173 14.4615C17.7037 14.7881 16.7079 15.2948 16.0014 16.0014C15.2948 16.7079 14.7881 17.7037 14.4615 19.173C14.1325 20.6537 14 22.5523 14 25ZM16.0035 31.6785C15.6038 32.0407 15.2852 32.3902 15.0656 32.651C15.6486 33.8666 16.5177 34.6396 17.8527 35.1503C19.4468 35.7602 21.7193 36 25 36C29.801 36 32.3777 35.4765 33.8457 34.1443C35.2606 32.8604 35.8965 30.5839 35.9881 26.2088C35.9461 26.1505 35.8684 26.0649 35.7304 25.9818C35.4158 25.7924 34.5935 25.5074 32.7425 25.9701C31.0406 26.3956 30.0828 27.3342 29.1873 28.3491C29.1026 28.4451 29.016 28.5449 28.9274 28.6469C28.5646 29.0646 28.1705 29.5184 27.7542 29.8924C27.2092 30.3819 26.5521 30.8094 25.6961 30.9806C24.1888 31.282 23.0849 30.8381 22.1877 30.4773C22.1468 30.4608 22.1062 30.4445 22.0661 30.4285C21.1695 30.0698 20.3837 29.7832 19.1644 29.9864C17.9346 30.1914 16.8347 30.9252 16.0035 31.6785Z" stroke="#131835" stroke-width="2" stroke-linecap="round" stroke-linejoin="round"/>
<path d="M22 19C20.3431 19 19 20.3431 19 22C19 23.6569 20.3431 25 22 25C23.6569 25 25 23.6569 25 22C25 20.3431 23.6569 19 22 19Z" stroke="#131835" stroke-width="2"/>
</svg>
