<svg width="20" height="20" viewBox="0 0 20 20" fill="none" xmlns="http://www.w3.org/2000/svg">
<path fill-rule="evenodd" clip-rule="evenodd" d="M10 3.05176e-05C18.235 3.05176e-05 20 1.76503 20 10C18.3333 18.3334 10 20 10 20C10 20 1.66667 18.3334 0 10C0 1.76503 1.765 2.89234e-05 10 3.05176e-05ZM13.9226 6.91079C14.248 7.23622 14.248 7.76386 13.9226 8.0893L9.75594 12.256C9.4305 12.5814 8.90286 12.5814 8.57742 12.256L6.91076 10.5893C6.58532 10.2639 6.58532 9.73623 6.91076 9.41079C7.23619 9.08535 7.76383 9.08535 8.08927 9.41079L9.16668 10.4882L12.7441 6.91079C13.0695 6.58535 13.5972 6.58535 13.9226 6.91079Z" fill="#212135"/>
</svg>
