<svg width="20" height="20" viewBox="0 0 20 20" fill="none" xmlns="http://www.w3.org/2000/svg">
<path fill-rule="evenodd" clip-rule="evenodd" d="M0.43771 15.6101C0.132539 14.237 0 12.4249 0 10.0001C0 7.57521 0.132539 5.76314 0.43771 4.38999C0.737833 3.03955 1.17768 2.23931 1.70846 1.70852C2.23924 1.17774 3.03949 0.737894 4.38993 0.437771C5.76307 0.132601 7.57515 6.10352e-05 10 6.10352e-05C12.4249 6.10352e-05 14.2369 0.132601 15.6101 0.437771C16.9605 0.737894 17.7608 1.17774 18.2915 1.70852C18.8223 2.23931 19.2622 3.03955 19.5623 4.38999C19.8675 5.76314 20 7.57521 20 10.0001C20 11.1472 19.9703 12.1571 19.9068 13.0484C19.758 13.0453 19.5983 13.0383 19.4172 13.0303C19.2778 13.0242 19.1253 13.0176 18.9557 13.0117C18.5167 12.9965 18.0111 12.9898 17.4904 13.0326C16.4639 13.117 15.2453 13.4041 14.311 14.3413C13.3796 15.2756 13.1002 16.4586 13.0249 17.4749C12.9871 17.986 12.9989 18.4844 13.0174 18.9212C13.0234 19.0627 13.0298 19.1935 13.0358 19.3162C13.0465 19.5343 13.056 19.7267 13.0595 19.906C12.1655 19.9701 11.1519 20.0001 10 20.0001C7.57515 20.0001 5.76307 19.8675 4.38993 19.5624C3.03949 19.2622 2.23924 18.8224 1.70846 18.2916C1.17768 17.7608 0.737833 16.9606 0.43771 15.6101ZM4 5.00006C4 4.44778 4.44772 4.00006 5 4.00006H8C8.55229 4.00006 9 4.44778 9 5.00006C9 5.55235 8.55229 6.00006 8 6.00006H5C4.44772 6.00006 4 5.55235 4 5.00006ZM5 9.00006C4.44772 9.00006 4 9.44778 4 10.0001C4 10.5523 4.44771 11.0001 5 11.0001H15C15.5523 11.0001 16 10.5523 16 10.0001C16 9.44778 15.5523 9.00006 15 9.00006H5Z" fill="#212135"/>
<path d="M19.2682 15.026C19.4044 15.0318 19.5419 15.0378 19.6743 15.0423C19.6399 15.2395 19.6026 15.4287 19.5623 15.6101C19.2622 16.9606 18.8223 17.7608 18.2915 18.2916C17.7608 18.8224 16.9605 19.2622 15.6101 19.5624C15.4321 19.6019 15.2467 19.6386 15.0535 19.6724C15.0477 19.5056 15.0393 19.3335 15.031 19.1651C15.0255 19.053 15.0201 18.9425 15.0156 18.8364C14.998 18.4218 14.9904 18.0158 15.0195 17.6225C15.0781 16.8301 15.2778 16.2043 15.7274 15.7533C16.1741 15.3053 16.8289 15.0938 17.6544 15.0259C18.0596 14.9925 18.4747 14.9962 18.8865 15.0105C19.009 15.0147 19.1381 15.0203 19.2682 15.026Z" fill="#212135"/>
</svg>
