<svg width="22" height="20" viewBox="0 0 22 20" fill="none" xmlns="http://www.w3.org/2000/svg">
<path d="M10 20C4.477 20 0 15.523 0 10C0 4.47703 4.477 3.33359e-05 10 3.33359e-05C11.5527 -0.00113313 13.0842 0.359806 14.4729 1.05418C15.8617 1.74854 17.0693 2.75721 18 4.00003H15.29C14.1352 2.98179 12.7112 2.31839 11.1887 2.08943C9.66625 1.86048 8.11007 2.07569 6.70689 2.70925C5.30371 3.3428 4.11315 4.36779 3.27807 5.66122C2.44299 6.95465 1.99887 8.46156 1.999 10.0011C1.99913 11.5407 2.4435 13.0476 3.27879 14.3408C4.11409 15.6341 5.30482 16.6589 6.7081 17.2922C8.11139 17.9256 9.66761 18.1405 11.19 17.9113C12.7125 17.6821 14.1364 17.0185 15.291 16H18.001C17.0702 17.243 15.8624 18.2517 14.4735 18.9461C13.0846 19.6405 11.5528 20.0014 10 20ZM17 14V11H9V9.00003H17V6.00003L22 10L17 14Z" fill="#212135"/>
</svg>
