<svg width="50" height="50" viewBox="0 0 50 50" fill="none" xmlns="http://www.w3.org/2000/svg">
<path d="M0 10C0 4.47715 4.47715 0 10 0H40C45.5228 0 50 4.47715 50 10V40C50 45.5228 45.5228 50 40 50H10C4.47715 50 0 45.5228 0 40V10Z" fill="#131835"/>
<path d="M32 25H30.25L27.5 20L22.5 30L19.75 25H18" stroke="white" stroke-width="2" stroke-linecap="round" stroke-linejoin="round"/>
<path d="M14 25C14 27.4477 14.1325 29.3463 14.4615 30.827C14.7881 32.2963 15.2948 33.2921 16.0014 33.9986C16.7079 34.7052 17.7037 35.2119 19.173 35.5385C20.6537 35.8675 22.5523 36 25 36C27.4477 36 29.3463 35.8675 30.827 35.5385C32.2963 35.2119 33.2921 34.7052 33.9986 33.9986C34.7052 33.2921 35.2119 32.2963 35.5385 30.827C35.8675 29.3463 36 27.4477 36 25C36 22.5523 35.8675 20.6537 35.5385 19.173C35.2119 17.7037 34.7052 16.7079 33.9986 16.0014C33.2921 15.2948 32.2963 14.7881 30.827 14.4615C29.3463 14.1325 27.4477 14 25 14C22.5523 14 20.6537 14.1325 19.173 14.4615C17.7037 14.7881 16.7079 15.2948 16.0014 16.0014C15.2948 16.7079 14.7881 17.7037 14.4615 19.173C14.1325 20.6537 14 22.5523 14 25Z" stroke="white" stroke-width="2" stroke-linecap="round" stroke-linejoin="round"/>
</svg>
