<svg width="20" height="20" viewBox="0 0 20 20" fill="none" xmlns="http://www.w3.org/2000/svg">
<path d="M12.5043 13.7427C11.8079 13.4538 11.1323 13.0721 10.4878 12.6182C9.84339 12.1642 8.6877 11.0445 7.95057 10.1632C7.28638 9.30688 6.73548 8.37835 6.34985 7.42919C6.19534 7.01535 6.62531 6.36538 6.95248 5.8708C7.04128 5.73655 7.12252 5.61374 7.18243 5.51022L7.20038 5.47874C7.46622 5.01235 7.7613 4.49468 7.61899 3.83887C7.49426 3.23016 5.82079 1.17708 5.23871 0.609645C4.85412 0.238232 4.45914 0.0422085 4.07455 0.000941411C2.52581 -0.0506443 0.769176 2.03339 0.550897 2.41512C0.187097 2.92065 0 3.50872 0 4.16901C0 4.83962 0.187097 5.59276 0.571685 6.4078C1.38244 8.33708 3.10788 10.7203 5.15555 12.9385C5.55208 13.3955 6.94543 14.7641 7.67099 15.4141C9.69787 17.2299 11.7975 18.7258 13.5541 19.4377C15.1964 20.1805 16.5581 20.1908 17.5767 19.448C18.0549 19.1591 20.0609 17.4775 19.9986 15.9815C19.9674 15.5791 19.7595 15.1871 19.3853 14.8157C18.8136 14.2379 16.7452 12.6078 16.1423 12.484C15.4713 12.3427 14.9494 12.6358 14.4794 12.8997L14.448 12.9173C14.3524 12.9731 14.2389 13.0473 14.1142 13.1289C13.6153 13.4555 12.9367 13.8995 12.5043 13.7427Z" fill="#212135"/>
<path d="M18.3333 10.8333C18.7936 10.8333 19.1667 10.4602 19.1667 10C19.1667 7.31063 18.2666 5.00473 16.6309 3.36908C14.9953 1.73343 12.6894 0.833333 10 0.833333C9.53976 0.833333 9.16667 1.20643 9.16667 1.66667C9.16667 2.1269 9.53976 2.5 10 2.5C12.3106 2.5 14.1714 3.26657 15.4524 4.54759C16.7334 5.82861 17.5 7.68937 17.5 10C17.5 10.4602 17.8731 10.8333 18.3333 10.8333Z" fill="#212135"/>
<path d="M15 10.8333C15.4602 10.8333 15.8333 10.4602 15.8333 10C15.8333 6.6231 13.3769 4.16667 10 4.16667C9.53976 4.16667 9.16667 4.53976 9.16667 5C9.16667 5.46024 9.53976 5.83333 10 5.83333C12.4564 5.83333 14.1667 7.54357 14.1667 10C14.1667 10.4602 14.5398 10.8333 15 10.8333Z" fill="#212135"/>
</svg>
