<svg width="20" height="20" viewBox="0 0 20 20" fill="none" xmlns="http://www.w3.org/2000/svg">
<path fill-rule="evenodd" clip-rule="evenodd" d="M0 10C0 18.235 1.765 20 10 20C18.235 20 20 18.235 20 10C20 1.765 18.235 0 10 0C1.765 0 0 1.765 0 10ZM10 5.83333C10.4602 5.83333 10.8333 6.20643 10.8333 6.66667V11.6667C10.8333 12.1269 10.4602 12.5 10 12.5C9.53976 12.5 9.16667 12.1269 9.16667 11.6667V6.66667C9.16667 6.20643 9.53976 5.83333 10 5.83333ZM10 13.3333C9.53976 13.3333 9.16667 13.7064 9.16667 14.1667C9.16667 14.6269 9.53976 15 10 15C10.4602 15 10.8333 14.6269 10.8333 14.1667C10.8333 13.7064 10.4602 13.3333 10 13.3333Z" fill="#212135"/>
</svg>
